# Smooth low-poly icosphere
o Icosphere

v -1.000000  1.618034  0.000000
v  1.000000  1.618034  0.000000
v -1.000000 -1.618034  0.000000
v  1.000000 -1.618034  0.000000
v  0.000000 -1.000000  1.618034
v  0.000000  1.000000  1.618034
v  0.000000 -1.000000 -1.618034
v  0.000000  1.000000 -1.618034
v  1.618034  0.000000 -1.000000
v  1.618034  0.000000  1.000000
v -1.618034  0.000000 -1.000000
v -1.618034  0.000000  1.000000

vt 0.5 0.5

vn -0.525731  0.850651  0.000000
vn  0.525731  0.850651  0.000000
vn -0.525731 -0.850651  0.000000
vn  0.525731 -0.850651  0.000000
vn  0.000000 -0.525731  0.850651
vn  0.000000  0.525731  0.850651
vn  0.000000 -0.525731 -0.850651
vn  0.000000  0.525731 -0.850651
vn  0.850651  0.000000 -0.525731
vn  0.850651  0.000000  0.525731
vn -0.850651  0.000000 -0.525731
vn -0.850651  0.000000  0.525731

usemtl Orb

f 1/1/1 12/1/12 6/1/6
f 1/1/1 6/1/6 2/1/2
f 1/1/1 2/1/2 8/1/8
f 1/1/1 8/1/8 11/1/11
f 1/1/1 11/1/11 12/1/12

f 2/1/2 6/1/6 10/1/10
f 6/1/6 12/1/12 5/1/5
f 12/1/12 11/1/11 3/1/3
f 11/1/11 8/1/8 7/1/7
f 8/1/8 2/1/2 9/1/9

f 4/1/4 10/1/10 5/1/5
f 4/1/4 5/1/5 3/1/3
f 4/1/4 3/1/3 7/1/7
f 4/1/4 7/1/7 9/1/9
f 4/1/4 9/1/9 10/1/10

f 5/1/5 10/1/10 6/1/6
f 3/1/3 5/1/5 12/1/12
f 7/1/7 3/1/3 11/1/11
f 9/1/9 7/1/7 8/1/8
f 10/1/10 9/1/9 2/1/2