# Simple basic-lighting example
o Shrine

v -1.0 -1.0  1.0
v  1.0 -1.0  1.0
v  1.0  1.0  1.0
v -1.0  1.0  1.0
v -1.0 -1.0 -1.0
v  1.0 -1.0 -1.0
v  1.0  1.0 -1.0
v -1.0  1.0 -1.0
v  0.0  2.4  0.0

vt 0.0 0.0
vt 1.0 0.0
vt 1.0 1.0
vt 0.0 1.0
vt 0.5 1.0

vn  0.0  0.0  1.0
vn  0.0  0.0 -1.0
vn -1.0  0.0  0.0
vn  1.0  0.0  0.0
vn  0.0  1.0  0.0
vn  0.0 -1.0  0.0
vn  0.0  0.581238  0.813733
vn  0.813733  0.581238  0.0
vn  0.0  0.581238 -0.813733
vn -0.813733  0.581238  0.0

usemtl Stone
f 1/1/1 2/2/1 3/3/1 4/4/1
f 6/1/2 5/2/2 8/3/2 7/4/2
f 5/1/3 1/2/3 4/3/3 8/4/3
f 2/1/4 6/2/4 7/3/4 3/4/4
f 4/1/5 3/2/5 7/3/5 8/4/5
f 5/1/6 6/2/6 2/3/6 1/4/6

usemtl Crystal
f 4/1/7 3/2/7 9/5/7
f 3/1/8 7/2/8 9/5/8
f 7/1/9 8/2/9 9/5/9
f 8/1/10 4/2/10 9/5/10