# Three-level hard-surface pillar
o SteppedPillar

# Base: x/z +-0.8, y 0.0 to 0.3
v -0.8 0.0  0.8
v  0.8 0.0  0.8
v  0.8 0.3  0.8
v -0.8 0.3  0.8
v -0.8 0.0 -0.8
v  0.8 0.0 -0.8
v  0.8 0.3 -0.8
v -0.8 0.3 -0.8

# Shaft: x/z +-0.45, y 0.3 to 2.5
v -0.45 0.3  0.45
v  0.45 0.3  0.45
v  0.45 2.5  0.45
v -0.45 2.5  0.45
v -0.45 0.3 -0.45
v  0.45 0.3 -0.45
v  0.45 2.5 -0.45
v -0.45 2.5 -0.45

# Cap: x/z +-0.65, y 2.5 to 2.8
v -0.65 2.5  0.65
v  0.65 2.5  0.65
v  0.65 2.8  0.65
v -0.65 2.8  0.65
v -0.65 2.5 -0.65
v  0.65 2.5 -0.65
v  0.65 2.8 -0.65
v -0.65 2.8 -0.65

vt 0.0 0.0
vt 1.0 0.0
vt 1.0 1.0
vt 0.0 1.0

vn  0.0  0.0  1.0
vn  0.0  0.0 -1.0
vn -1.0  0.0  0.0
vn  1.0  0.0  0.0
vn  0.0  1.0  0.0
vn  0.0 -1.0  0.0

usemtl Stone

# Base
f 1/1/1 2/2/1 3/3/1 4/4/1
f 6/1/2 5/2/2 8/3/2 7/4/2
f 5/1/3 1/2/3 4/3/3 8/4/3
f 2/1/4 6/2/4 7/3/4 3/4/4
f 4/1/5 3/2/5 7/3/5 8/4/5
f 5/1/6 6/2/6 2/3/6 1/4/6

# Shaft sides
f 9/1/1 10/2/1 11/3/1 12/4/1
f 14/1/2 13/2/2 16/3/2 15/4/2
f 13/1/3 9/2/3 12/3/3 16/4/3
f 10/1/4 14/2/4 15/3/4 11/4/4

# Cap
f 17/1/1 18/2/1 19/3/1 20/4/1
f 22/1/2 21/2/2 24/3/2 23/4/2
f 21/1/3 17/2/3 20/3/3 24/4/3
f 18/1/4 22/2/4 23/3/4 19/4/4
f 20/1/5 19/2/5 23/3/5 24/4/5
f 21/1/6 22/2/6 18/3/6 17/4/6